<?xml version="1.0" encoding="UTF-8"?>
<svg version="1.1" xmlns="http://www.w3.org/2000/svg" width="500" height="500">
<path d="M0 0 C165 0 330 0 500 0 C500 165 500 330 500 500 C335 500 170 500 0 500 C0 335 0 170 0 0 Z " fill="#000000" transform="translate(0,0)"/>
<path d="M0 0 C0.774646 0.00143005 1.54929199 0.00286011 2.34741211 0.0043335 C16.83726052 0.06996721 30.51396748 1.84052153 44.5625 5.5 C45.46871094 5.72993652 46.37492188 5.95987305 47.30859375 6.19677734 C64.12986127 10.55956204 79.83846844 17.26139196 94.5625 26.5 C93.9025 27.49 93.2425 28.48 92.5625 29.5 C93.14 29.62375 93.7175 29.7475 94.3125 29.875 C96.5625 30.5 96.5625 30.5 98.625 31.5625 C100.65384681 32.71778046 100.65384681 32.71778046 103.5625 32.5 C105.88109201 34.06497742 108.05737516 35.65035684 110.25 37.375 C110.85650391 37.83519531 111.46300781 38.29539063 112.08789062 38.76953125 C113.62193507 39.96018442 115.09758701 41.22525403 116.5625 42.5 C116.5625 43.16 116.5625 43.82 116.5625 44.5 C117.10390625 44.7165625 117.6453125 44.933125 118.203125 45.15625 C121.37895344 46.96499997 123.76978081 49.41723799 126.3125 52 C126.81910156 52.49886719 127.32570313 52.99773437 127.84765625 53.51171875 C131.5625 57.24658861 131.5625 57.24658861 131.5625 59.5 C132.2225 59.5 132.8825 59.5 133.5625 59.5 C164.31372646 92.80986179 173.53852357 138.84421737 172.5625 182.5 C175.5325 183.16 178.5025 183.82 181.5625 184.5 C177.15482396 185.60191901 175.6702065 185.08706842 171.5625 183.5 C171.54832031 184.27859375 171.53414063 185.0571875 171.51953125 185.859375 C170.82056199 202.25681592 166.81059669 222.62785496 157.5625 236.5 C157.15837891 237.799375 157.15837891 237.799375 156.74609375 239.125 C155.19022433 243.56153855 152.98010216 247.44237991 150.625 251.5 C150.14426025 252.33144531 149.66352051 253.16289062 149.16821289 254.01953125 C145.20433817 260.72099515 140.73341535 266.8191967 135.77734375 272.8125 C133.50228445 275.48079263 133.50228445 275.48079263 131.5625 278.5 C130.9025 278.5 130.2425 278.5 129.5625 278.5 C129.28664063 279.09167969 129.01078125 279.68335938 128.7265625 280.29296875 C125.23868152 286.90589745 119.25504427 291.82430574 113.5625 296.5 C112.81154053 297.1194751 112.81154053 297.1194751 112.04541016 297.75146484 C103.92789164 304.40922256 95.67119999 310.24727655 86.5625 315.5 C85.69238281 316.0053125 84.82226562 316.510625 83.92578125 317.03125 C80.21356119 319.14199992 76.57354773 321.01018227 72.5625 322.5 C70.54914572 323.47617177 68.60641634 324.47365019 66.6875 325.625 C63.90882958 326.76915841 61.53623305 326.63516968 58.5625 326.5 C58.5625 327.16 58.5625 327.82 58.5625 328.5 C55.5925 328.83 52.6225 329.16 49.5625 329.5 C49.5625 330.16 49.5625 330.82 49.5625 331.5 C10.29105961 341.51227317 -31.81809137 340.26926096 -68.4375 321.5 C-69.0975 320.84 -69.7575 320.18 -70.4375 319.5 C-70.1075 319.17 -69.7775 318.84 -69.4375 318.5 C-71.27034443 317.37483915 -71.27034443 317.37483915 -73.4375 316.5 C-74.4275 316.83 -75.4175 317.16 -76.4375 317.5 C-78.93128365 316.25609832 -81.21053027 314.97406687 -83.5625 313.5 C-84.57509888 312.87641602 -84.57509888 312.87641602 -85.6081543 312.24023438 C-96.64700052 305.34773813 -106.36455696 296.8117047 -115.4375 287.5 C-115.994375 286.97664063 -116.55125 286.45328125 -117.125 285.9140625 C-141.78512242 262.34773583 -162.34050868 224.32766819 -164.61328125 189.83203125 C-164.62272347 188.053747 -164.54400702 186.27511698 -164.4375 184.5 C-164.4375 184.17 -164.4375 183.84 -164.4375 183.5 C-165.28570312 183.7165625 -166.13390625 183.933125 -167.0078125 184.15625 C-175.50867135 186.17403628 -183.66592329 187.42143439 -192.4375 186.5 C-193.4275 185.84 -194.4175 185.18 -195.4375 184.5 C-194.48230469 184.52320313 -193.52710938 184.54640625 -192.54296875 184.5703125 C-185.36990145 184.67043507 -178.75234189 184.49590973 -171.70703125 182.9375 C-169.4375 182.5 -169.4375 182.5 -165.4375 182.5 C-165.45321045 181.56430176 -165.4689209 180.62860352 -165.48510742 179.66455078 C-165.99318284 144.81100553 -165.99318284 144.81100553 -162.4375 130.5 C-162.27652832 129.79665527 -162.11555664 129.09331055 -161.94970703 128.36865234 C-156.03438471 102.75831835 -143.05663851 73.6550237 -123.4375 55.5 C-122.8084375 55.19320312 -122.179375 54.88640625 -121.53125 54.5703125 C-118.79169036 53.16986597 -116.97697937 51.30395749 -114.8125 49.125 C-114.03648437 48.35414062 -113.26046875 47.58328125 -112.4609375 46.7890625 C-110.40928446 44.69272013 -110.40928446 44.69272013 -109.5390625 42.52734375 C-107.85474171 39.42747676 -105.18465633 37.55494113 -102.4375 35.4375 C-101.51469238 34.72339966 -101.51469238 34.72339966 -100.57324219 33.99487305 C-69.5450434 10.5 -69.5450434 10.5 -56.4375 10.5 C-56.4375 9.51 -56.4375 8.52 -56.4375 7.5 C-55.7775 7.5 -55.1175 7.5 -54.4375 7.5 C-54.7675 8.82 -55.0975 10.14 -55.4375 11.5 C-54.4475 11.5 -53.4575 11.5 -52.4375 11.5 C-51.4475 11.5 -50.4575 11.5 -49.4375 11.5 C-49.4375 10.84 -49.4375 10.18 -49.4375 9.5 C-50.4275 9.17 -51.4175 8.84 -52.4375 8.5 C-49.79457493 7.71794147 -47.14870066 6.94957463 -44.5 6.1875 C-43.78392578 5.97416016 -43.06785156 5.76082031 -42.33007812 5.54101562 C-28.32421049 1.54785336 -14.51509345 -0.08760598 0 0 Z " fill="#000000" transform="translate(250.4375,79.5)"/>
<path d="M0 0 C0.774646 0.00143005 1.54929199 0.00286011 2.34741211 0.0043335 C16.83726052 0.06996721 30.51396748 1.84052153 44.5625 5.5 C45.46871094 5.72993652 46.37492188 5.95987305 47.30859375 6.19677734 C64.12986127 10.55956204 79.83846844 17.26139196 94.5625 26.5 C92.875 28.125 92.875 28.125 90.5625 29.5 C88.26293945 28.74853516 88.26293945 28.74853516 85.5625 27.5 C84.67844482 27.09185059 83.79438965 26.68370117 82.88354492 26.26318359 C81.94615479 25.81281738 81.00876465 25.36245117 80.04296875 24.8984375 C79.02138672 24.40859375 77.99980469 23.91875 76.94726562 23.4140625 C75.89216797 22.90617187 74.83707031 22.39828125 73.75 21.875 C72.67556641 21.359375 71.60113281 20.84375 70.49414062 20.3125 C67.84956583 19.0431041 65.20571516 17.77222395 62.5625 16.5 C63.2225 16.17 63.8825 15.84 64.5625 15.5 C64.5625 14.84 64.5625 14.18 64.5625 13.5 C63.86769531 13.37753906 63.17289062 13.25507812 62.45703125 13.12890625 C59.29286021 12.4414143 56.31441616 11.48142199 53.25 10.4375 C52.18136719 10.07527344 51.11273438 9.71304688 50.01171875 9.33984375 C49.20347656 9.06269531 48.39523437 8.78554687 47.5625 8.5 C47.5625 9.16 47.5625 9.82 47.5625 10.5 C49.5425 10.83 51.5225 11.16 53.5625 11.5 C50.55218256 12.43423645 49.69599732 12.54449911 46.5625 11.5 C46.5625 12.16 46.5625 12.82 46.5625 13.5 C44.5825 13.005 44.5825 13.005 42.5625 12.5 C42.5625 11.51 42.5625 10.52 42.5625 9.5 C40.08343282 9.18669458 37.6042514 8.87434161 35.125 8.5625 C34.09342773 8.43198242 34.09342773 8.43198242 33.04101562 8.29882812 C31.61026683 8.11915269 30.17909047 7.94285717 28.74755859 7.76953125 C27.3427573 7.59624626 25.93921619 7.41222625 24.53759766 7.21484375 C17.31129726 6.26868331 10.08972574 6.35329853 2.8125 6.375 C1.53117188 6.37113281 0.24984375 6.36726563 -1.0703125 6.36328125 C-9.23818963 6.3715651 -17.30471293 6.74454221 -25.4375 7.5 C-25.4375 7.17 -25.4375 6.84 -25.4375 6.5 C-16.23885069 4.39935581 -7.1330168 4.07622185 2.25 3.875 C3.74155668 3.83671752 5.23309369 3.79766029 6.72460938 3.7578125 C10.33705704 3.66295913 13.94965631 3.57853314 17.5625 3.5 C5.68457551 3.28914927 -5.86677565 3.50936312 -17.65234375 5.0625 C-20.96269383 5.44512044 -24.11086568 5.58329601 -27.4375 5.5 C-27.7675 4.84 -28.0975 4.18 -28.4375 3.5 C-28.4375 4.49 -28.4375 5.48 -28.4375 6.5 C-32.9931433 9.53709553 -37.14519547 11.08805499 -42.4375 12.5625 C-43.654375 12.90410156 -44.87125 13.24570313 -46.125 13.59765625 C-47.84989534 14.06752751 -49.57772112 14.53121472 -51.32275391 14.91967773 C-75.05294416 21.43164521 -100.77936755 38.63537764 -116.16796875 57.8359375 C-117.29138672 59.15464844 -117.29138672 59.15464844 -118.4375 60.5 C-119.0975 60.5 -119.7575 60.5 -120.4375 60.5 C-120.68371094 61.05171875 -120.92992187 61.6034375 -121.18359375 62.171875 C-122.68652201 64.96235863 -124.53186391 67.26466412 -126.5 69.75 C-138.35920376 85.19594868 -146.34763546 103.23621325 -152.17578125 121.69921875 C-153.05172 124.44603046 -154.06522861 126.95517747 -155.4375 129.5 C-155.4375 129.83 -155.4375 130.16 -155.4375 130.5 C-155.61925781 131.74136719 -155.61925781 131.74136719 -155.8046875 133.0078125 C-157.87572703 147.75998639 -158.56677295 162.63884501 -159.4375 177.5 C-159.7675 177.5 -160.0975 177.5 -160.4375 177.5 C-160.4375 168.83333333 -160.4375 160.16666667 -160.4375 151.5 C-160.7675 161.07 -161.0975 170.64 -161.4375 180.5 C-158.4675 179.51 -155.4975 178.52 -152.4375 177.5 C-151.4475 177.83 -150.4575 178.16 -149.4375 178.5 C-152.80847383 179.99821059 -154.64192119 180.5 -158.4375 180.5 C-153.8487542 212.78468738 -145.12722617 241.03834925 -125.5390625 267.5390625 C-123.90674512 269.83887026 -122.57560827 271.93612972 -121.4375 274.5 C-120.7775 274.5 -120.1175 274.5 -119.4375 274.5 C-117.7109375 276.1796875 -117.7109375 276.1796875 -115.8125 278.375 C-115.18085938 279.09429687 -114.54921875 279.81359375 -113.8984375 280.5546875 C-112.4375 282.5 -112.4375 282.5 -112.4375 284.5 C-111.7775 284.5 -111.1175 284.5 -110.4375 284.5 C-110.4375 285.16 -110.4375 285.82 -110.4375 286.5 C-109.7775 286.5 -109.1175 286.5 -108.4375 286.5 C-108.4375 287.16 -108.4375 287.82 -108.4375 288.5 C-107.55964844 288.89058594 -107.55964844 288.89058594 -106.6640625 289.2890625 C-104.29108677 290.57962825 -102.74323099 291.99194138 -100.8125 293.875 C-68.81508171 322.77758603 -27.98819655 332.9480061 14.08984375 330.88671875 C20.58846882 330.5237504 27.07552638 330.02934555 33.5625 329.5 C33.5625 329.83 33.5625 330.16 33.5625 330.5 C35.01269531 330.20996094 35.01269531 330.20996094 36.4921875 329.9140625 C39.86702474 329.23909505 43.24186198 328.5641276 46.61669922 327.88916016 C47.25881348 327.7607373 47.90092773 327.63231445 48.5625 327.5 C51.89583333 326.83333333 55.22916667 326.16666667 58.5625 325.5 C58.5625 326.49 58.5625 327.48 58.5625 328.5 C55.5925 328.83 52.6225 329.16 49.5625 329.5 C49.5625 330.16 49.5625 330.82 49.5625 331.5 C10.29105961 341.51227317 -31.81809137 340.26926096 -68.4375 321.5 C-69.0975 320.84 -69.7575 320.18 -70.4375 319.5 C-70.1075 319.17 -69.7775 318.84 -69.4375 318.5 C-71.27034443 317.37483915 -71.27034443 317.37483915 -73.4375 316.5 C-74.4275 316.83 -75.4175 317.16 -76.4375 317.5 C-78.93128365 316.25609832 -81.21053027 314.97406687 -83.5625 313.5 C-84.57509888 312.87641602 -84.57509888 312.87641602 -85.6081543 312.24023438 C-96.64700052 305.34773813 -106.36455696 296.8117047 -115.4375 287.5 C-115.994375 286.97664063 -116.55125 286.45328125 -117.125 285.9140625 C-141.78512242 262.34773583 -162.34050868 224.32766819 -164.61328125 189.83203125 C-164.62272347 188.053747 -164.54400702 186.27511698 -164.4375 184.5 C-164.4375 184.17 -164.4375 183.84 -164.4375 183.5 C-165.28570312 183.7165625 -166.13390625 183.933125 -167.0078125 184.15625 C-175.50867135 186.17403628 -183.66592329 187.42143439 -192.4375 186.5 C-193.4275 185.84 -194.4175 185.18 -195.4375 184.5 C-194.48230469 184.52320313 -193.52710938 184.54640625 -192.54296875 184.5703125 C-185.36990145 184.67043507 -178.75234189 184.49590973 -171.70703125 182.9375 C-169.4375 182.5 -169.4375 182.5 -165.4375 182.5 C-165.45321045 181.56430176 -165.4689209 180.62860352 -165.48510742 179.66455078 C-165.99318284 144.81100553 -165.99318284 144.81100553 -162.4375 130.5 C-162.27652832 129.79665527 -162.11555664 129.09331055 -161.94970703 128.36865234 C-156.03438471 102.75831835 -143.05663851 73.6550237 -123.4375 55.5 C-122.8084375 55.19320312 -122.179375 54.88640625 -121.53125 54.5703125 C-118.79169036 53.16986597 -116.97697937 51.30395749 -114.8125 49.125 C-114.03648437 48.35414062 -113.26046875 47.58328125 -112.4609375 46.7890625 C-110.40928446 44.69272013 -110.40928446 44.69272013 -109.5390625 42.52734375 C-107.85474171 39.42747676 -105.18465633 37.55494113 -102.4375 35.4375 C-101.51469238 34.72339966 -101.51469238 34.72339966 -100.57324219 33.99487305 C-69.5450434 10.5 -69.5450434 10.5 -56.4375 10.5 C-56.4375 9.51 -56.4375 8.52 -56.4375 7.5 C-55.7775 7.5 -55.1175 7.5 -54.4375 7.5 C-54.7675 8.82 -55.0975 10.14 -55.4375 11.5 C-54.4475 11.5 -53.4575 11.5 -52.4375 11.5 C-51.4475 11.5 -50.4575 11.5 -49.4375 11.5 C-49.4375 10.84 -49.4375 10.18 -49.4375 9.5 C-50.4275 9.17 -51.4175 8.84 -52.4375 8.5 C-49.79457493 7.71794147 -47.14870066 6.94957463 -44.5 6.1875 C-43.78392578 5.97416016 -43.06785156 5.76082031 -42.33007812 5.54101562 C-28.32421049 1.54785336 -14.51509345 -0.08760598 0 0 Z " fill="#201A0D" transform="translate(250.4375,79.5)"/>
<path d="M0 0 C0.33 0 0.66 0 1 0 C1.495 3.96 1.495 3.96 2 8 C2.33 6.02 2.66 4.04 3 2 C4.5 3.0625 4.5 3.0625 6 5 C6.43326331 10.79676432 5.31192388 15.87769749 3.875 21.4375 C3.65416748 22.30624756 3.43333496 23.17499512 3.20581055 24.07006836 C-1.83165579 43.24748369 -1.83165579 43.24748369 -7 51 C-7.26941406 51.86625 -7.53882813 52.7325 -7.81640625 53.625 C-9.37227567 58.06153855 -11.58239784 61.94237991 -13.9375 66 C-14.65860962 67.24716797 -14.65860962 67.24716797 -15.39428711 68.51953125 C-19.35816183 75.22099515 -23.82908465 81.3191967 -28.78515625 87.3125 C-31.06021555 89.98079263 -31.06021555 89.98079263 -33 93 C-33.66 93 -34.32 93 -35 93 C-35.27585937 93.59167969 -35.55171875 94.18335938 -35.8359375 94.79296875 C-39.32381848 101.40589745 -45.30745573 106.32430574 -51 111 C-51.50063965 111.4129834 -52.0012793 111.8259668 -52.51708984 112.25146484 C-60.63460836 118.90922256 -68.89130001 124.74727655 -78 130 C-78.87011719 130.5053125 -79.74023438 131.010625 -80.63671875 131.53125 C-84.34893881 133.64199992 -87.98895227 135.51018227 -92 137 C-94.03370663 137.98603958 -95.96493968 138.97779513 -97.875 140.1875 C-101.71167987 141.65446583 -105.2386664 140.25377787 -109 139 C-109.969375 139.33 -110.93875 139.66 -111.9375 140 C-115.10817903 141.03532376 -115.96592934 140.94364185 -119 140 C-118.47792969 139.82984375 -117.95585937 139.6596875 -117.41796875 139.484375 C-101.72973638 134.31907257 -85.10766085 128.41755742 -72 118 C-71.505 116.515 -71.505 116.515 -71 115 C-70.26910156 114.90460938 -69.53820312 114.80921875 -68.78515625 114.7109375 C-63.60043581 113.38748852 -59.97658422 109.43935766 -56 106 C-55.03320312 105.16855469 -54.06640625 104.33710938 -53.0703125 103.48046875 C-22.69184096 76.80451283 -5.79718072 39.54337091 0 0 Z " fill="#1C160B" transform="translate(415,265)"/>
<path d="M0 0 C-1.35802935 3.04461418 -3.1226454 5.59870963 -5.12036133 8.25854492 C-15.62331693 22.31358007 -23.62397345 37.87574039 -31.25 53.625 C-31.82339111 54.80537842 -32.39678223 55.98575684 -32.98754883 57.2019043 C-33.51243896 58.3031665 -34.0373291 59.40442871 -34.578125 60.5390625 C-35.04637695 61.52084473 -35.51462891 62.50262695 -35.99707031 63.51416016 C-37.1870764 66.01692771 -37.1870764 66.01692771 -37 69 C-26.48791739 72.20490323 -15.90482344 73.08408104 -5 74 C-4.87818359 73.04480469 -4.87818359 73.04480469 -4.75390625 72.0703125 C-1.43503809 58.55409295 7.0664451 45.81178585 14.125 33.9375 C14.78121338 32.83325684 15.43742676 31.72901367 16.11352539 30.59130859 C25.8913714 14.34410296 25.8913714 14.34410296 30 9 C30.66 9 31.32 9 32 9 C31.35667287 12.23635275 30.1917504 14.61814734 28.48046875 17.4296875 C27.95855957 18.2964209 27.43665039 19.1631543 26.89892578 20.05615234 C26.05177002 21.45148193 26.05177002 21.45148193 25.1875 22.875 C15.46917589 39.12438336 6.14548115 55.43821887 -1 73 C7.59435792 71.29600801 7.59435792 71.29600801 15.25 67.25 C18.21520571 65.16314304 19.88753972 64.72646923 23.5 65.1875 C24.655 65.455625 25.81 65.72375 27 66 C27.33 66.99 27.66 67.98 28 69 C27.525625 69.886875 27.05125 70.77375 26.5625 71.6875 C24.5999369 75.84813378 24.76474733 78.45178175 25 83 C30.65535883 82.51982802 34.50619513 80.24213481 39.25 77.375 C41.8081201 75.83462661 44.35460239 74.39387542 47 73 C47.66 73.33 48.32 73.66 49 74 C46.32622836 75.83340481 43.63394322 77.63764088 40.9375 79.4375 C40.18533203 79.95376953 39.43316406 80.47003906 38.65820312 81.00195312 C34.14708496 83.98983659 30.58678294 85.97904956 25 86 C22.0625 83.75 22.0625 83.75 20 81 C20 80.01 20 79.02 20 78 C19.4225 78.350625 18.845 78.70125 18.25 79.0625 C15.64198224 80.14917407 14.60582371 79.93065133 12 79 C12.33 76.69 12.66 74.38 13 72 C12.43152344 72.19335938 11.86304688 72.38671875 11.27734375 72.5859375 C10.50519531 72.84632813 9.73304688 73.10671875 8.9375 73.375 C8.18339844 73.63023437 7.42929688 73.88546875 6.65234375 74.1484375 C4 75 4 75 0.40234375 75.5546875 C-2.98845443 76.61389631 -2.98845443 76.61389631 -4.10473633 78.74951172 C-5.01491119 81.05881765 -5.71969829 83.35606543 -6.375 85.75 C-6.62121094 86.54921875 -6.86742187 87.3484375 -7.12109375 88.171875 C-9.03301582 94.52405323 -10.14187567 100.5300463 -10.125 107.1875 C-10.12886719 108.72470703 -10.12886719 108.72470703 -10.1328125 110.29296875 C-10.11701778 113.09787905 -10.11701778 113.09787905 -9 116 C-12.875 114.25 -12.875 114.25 -14 112 C-15.12918819 99.06061406 -12.25154454 87.78211856 -7 76 C-7.87180908 76.04350586 -7.87180908 76.04350586 -8.76123047 76.08789062 C-15.85500497 76.28334987 -22.24032682 75.12043834 -29.125 73.5 C-30.176875 73.26152344 -31.22875 73.02304687 -32.3125 72.77734375 C-34.87734972 72.19442336 -37.43954068 71.6018584 -40 71 C-40.27714844 72.13179688 -40.55429688 73.26359375 -40.83984375 74.4296875 C-41.20560488 75.91148902 -41.57149711 77.39325818 -41.9375 78.875 C-42.11990234 79.62136719 -42.30230469 80.36773437 -42.49023438 81.13671875 C-43.88671875 86.7734375 -43.88671875 86.7734375 -45 89 C-45.06950541 90.54023996 -45.08452357 92.08334988 -45.0625 93.625 C-45.05347656 94.44226563 -45.04445312 95.25953125 -45.03515625 96.1015625 C-45.02355469 96.72804688 -45.01195312 97.35453125 -45 98 C-45.99 98 -46.98 98 -48 98 C-50.76972915 92.46054169 -48.66833545 86.07506603 -46.8671875 80.54296875 C-46.58101562 79.70378906 -46.29484375 78.86460937 -46 78 C-45.57074219 76.69482422 -45.57074219 76.69482422 -45.1328125 75.36328125 C-44.43232208 73.23846032 -43.72129034 71.11783122 -43 69 C-46.33303003 68.8825125 -49.66551837 68.81232676 -53 68.75 C-53.93457031 68.71648437 -54.86914062 68.68296875 -55.83203125 68.6484375 C-62.8888636 68.54974054 -68.47990763 69.64991209 -73.71875 74.63574219 C-74.1415625 75.08594727 -74.564375 75.53615234 -75 76 C-74.6921025 72.99673748 -74.51576059 71.45508287 -72.20703125 69.41796875 C-62.36545349 64.36071427 -52.63163157 65.58089819 -42 67 C-41.54898926 66.02897339 -41.54898926 66.02897339 -41.08886719 65.03833008 C-31.17365966 43.78958319 -20.77911958 22.36332299 -6 4 C-6.76143311 4.21205078 -7.52286621 4.42410156 -8.30737305 4.64257812 C-11.76562063 5.60166546 -15.22649184 6.55092524 -18.6875 7.5 C-20.48477539 8.00080078 -20.48477539 8.00080078 -22.31835938 8.51171875 C-24.05375977 8.98544922 -24.05375977 8.98544922 -25.82421875 9.46875 C-26.88729248 9.76201172 -27.95036621 10.05527344 -29.0456543 10.35742188 C-31.8096232 10.95859253 -34.18457567 11.12745656 -37 11 C-34.63977163 8.63977163 -33.2642871 8.3867282 -30.0546875 7.59765625 C-28.56195313 7.22157227 -28.56195313 7.22157227 -27.0390625 6.83789062 C-25.99492187 6.58201172 -24.95078125 6.32613281 -23.875 6.0625 C-15.57915047 4.05143729 -15.57915047 4.05143729 -7.5078125 1.30859375 C-4 0 -4 0 0 0 Z " fill="#C89F51" transform="translate(205,183)"/>
<path d="M0 0 C4.33398977 -0.37148484 6.38148176 0.71462006 10 3 C10.99 3 11.98 3 13 3 C15.31859201 4.56497742 17.49487516 6.15035684 19.6875 7.875 C20.29400391 8.33519531 20.90050781 8.79539062 21.52539062 9.26953125 C23.05943507 10.46018442 24.53508701 11.72525403 26 13 C26 13.66 26 14.32 26 15 C26.54140625 15.2165625 27.0828125 15.433125 27.640625 15.65625 C30.81645344 17.46499997 33.20728081 19.91723799 35.75 22.5 C36.25660156 22.99886719 36.76320313 23.49773437 37.28515625 24.01171875 C41 27.74658861 41 27.74658861 41 30 C41.66 30 42.32 30 43 30 C73.75122646 63.30986179 82.97602357 109.34421737 82 153 C84.97 153.66 87.94 154.32 91 155 C86.59232396 156.10191901 85.1077065 155.58706842 81 154 C81 155.98 81 157.96 81 160 C79.10786631 157.61426621 77.97608217 155.92824652 77 153 C76.34 153.66 75.68 154.32 75 155 C74.67 154.01 74.34 153.02 74 152 C73.34 151.34 72.68 150.68 72 150 C72.99 150 73.98 150 75 150 C74.79547633 132.74772314 73.94492446 116.27621238 70.43359375 99.32519531 C70.00896512 97.04807649 69.7358273 94.79564098 69.5 92.4921875 C69.34894241 88.94910946 69.34894241 88.94910946 67 87 C66.27319336 85.29858398 66.27319336 85.29858398 65.58984375 83.24609375 C65.19623657 82.10140625 65.19623657 82.10140625 64.79467773 80.93359375 C64.51180908 80.10988281 64.22894043 79.28617187 63.9375 78.4375 C52.19250036 45.76005418 30.19745592 21.39636105 1.6953125 2.2421875 C1.13585937 1.83226563 0.57640625 1.42234375 0 1 C0 0.67 0 0.34 0 0 Z " fill="#221B0E" transform="translate(341,109)"/>
<path d="M0 0 C0.99 0 1.98 0 3 0 C1.61889321 4.87842561 -0.60088284 8.75145883 -3.375 12.9375 C-13.05652719 28.03119495 -21.36002226 43.95638305 -27 61 C-26.24074219 60.37351563 -25.48148437 59.74703125 -24.69921875 59.1015625 C-23.70535156 58.28429687 -22.71148437 57.46703125 -21.6875 56.625 C-20.70136719 55.81289062 -19.71523438 55.00078125 -18.69921875 54.1640625 C-16 52 -16 52 -13 50 C-10.3125 50.375 -10.3125 50.375 -8 51 C-10.04329161 58.02381491 -12.9948768 64.42556461 -16.21875 70.97045898 C-18.00000145 74.63717515 -19.46829565 77.90748774 -20 82 C-14.19098941 79.03985284 -10.16016853 74.26322416 -5.703125 69.625 C-1.71444858 65.53864171 2.31152281 62.25252292 7 59 C7.804375 58.05125 8.60875 57.1025 9.4375 56.125 C12 54 12 54 14.0859375 53.91015625 C16.3125 54.1875 16.3125 54.1875 20 55 C20.33 55.99 20.66 56.98 21 58 C20.525625 58.886875 20.05125 59.77375 19.5625 60.6875 C17.5999369 64.84813378 17.76474733 67.45178175 18 72 C23.65535883 71.51982802 27.50619513 69.24213481 32.25 66.375 C34.8081201 64.83462661 37.35460239 63.39387542 40 62 C40.66 62.33 41.32 62.66 42 63 C39.32622836 64.83340481 36.63394322 66.63764088 33.9375 68.4375 C33.18533203 68.95376953 32.43316406 69.47003906 31.65820312 70.00195312 C27.14708496 72.98983659 23.58678294 74.97904956 18 75 C15.0625 72.75 15.0625 72.75 13 70 C13 69.01 13 68.02 13 67 C12.4225 67.350625 11.845 67.70125 11.25 68.0625 C8.64198224 69.14917407 7.60582371 68.93065133 5 68 C4.67 66.68 4.34 65.36 4 64 C1.60275688 66.22765452 -0.79253447 68.45739721 -3.1875 70.6875 C-3.86103516 71.31333984 -4.53457031 71.93917969 -5.22851562 72.58398438 C-5.88916016 73.19951172 -6.54980469 73.81503906 -7.23046875 74.44921875 C-7.87838379 75.05217773 -8.52629883 75.65513672 -9.19384766 76.27636719 C-10.77741085 77.78758051 -12.28417633 79.34152534 -13.78515625 80.93359375 C-16 83 -16 83 -19.25 83.375 C-22 83 -22 83 -23 82 C-23.7543791 75.44470571 -21.49869597 71.01545916 -18.5625 65.25 C-17.72929935 63.5682872 -16.89721879 61.88601887 -16.06640625 60.203125 C-15.69459229 59.46739258 -15.32277832 58.73166016 -14.93969727 57.97363281 C-13.88863848 55.86976346 -13.88863848 55.86976346 -13 53 C-13.76183594 53.67095703 -13.76183594 53.67095703 -14.5390625 54.35546875 C-15.96953752 55.61182228 -17.40468945 56.8628648 -18.84375 58.109375 C-20.13560551 59.24208889 -21.41237427 60.39292266 -22.65625 61.578125 C-26.29156033 64.94272073 -28.2192633 65 -33 65 C-35.75041666 67.41666771 -35.75041666 67.41666771 -38 70 C-38.66 70 -39.32 70 -40 70 C-40.2475 70.78375 -40.495 71.5675 -40.75 72.375 C-42.15389099 75.32317108 -43.00675737 75.9024777 -46 77 C-45.855625 76.443125 -45.71125 75.88625 -45.5625 75.3125 C-44.97230042 72.88612396 -44.48342365 70.44961731 -44 68 C-44.77085937 68.09539062 -45.54171875 68.19078125 -46.3359375 68.2890625 C-47.33882813 68.39992188 -48.34171875 68.51078125 -49.375 68.625 C-50.37273437 68.74101562 -51.37046875 68.85703125 -52.3984375 68.9765625 C-53.68621094 68.98816406 -53.68621094 68.98816406 -55 69 C-55.66 68.34 -56.32 67.68 -57 67 C-57 61.14103854 -53.76830669 57.18811804 -50 53 C-46.98675805 51.49337903 -44.31713623 51.82229627 -41 52 C-40.34 52.66 -39.68 53.32 -39 54 C-39.375 56.625 -39.375 56.625 -40 59 C-40.66 58.67 -41.32 58.34 -42 58 C-42 56.68 -42 55.36 -42 54 C-46.59351075 55.18118848 -48.39181892 57.42368921 -50.984375 61.1484375 C-52.04864615 63.08868568 -52.56204404 64.83878257 -53 67 C-52.113125 66.649375 -51.22625 66.29875 -50.3125 65.9375 C-46.85505959 64.95897913 -45.38853302 65.10828078 -42 66 C-37.26815501 66 -36.48207798 64.93227619 -33 62 C-32.34 62 -31.68 62 -31 62 C-30.91621094 60.87335938 -30.83242188 59.74671875 -30.74609375 58.5859375 C-30.10102065 53.49466735 -28.22387037 49.24336337 -26.0625 44.625 C-25.66281006 43.75721924 -25.26312012 42.88943848 -24.85131836 41.99536133 C-9.76608342 9.76608342 -9.76608342 9.76608342 0 0 Z " fill="#CBA152" transform="translate(331,194)"/>
<path d="M0 0 C0.774646 0.00143005 1.54929199 0.00286011 2.34741211 0.0043335 C16.83726052 0.06996721 30.51396748 1.84052153 44.5625 5.5 C45.46871094 5.72993652 46.37492188 5.95987305 47.30859375 6.19677734 C64.12986127 10.55956204 79.83846844 17.26139196 94.5625 26.5 C92.875 28.125 92.875 28.125 90.5625 29.5 C88.26293945 28.74853516 88.26293945 28.74853516 85.5625 27.5 C84.67844482 27.09185059 83.79438965 26.68370117 82.88354492 26.26318359 C81.94615479 25.81281738 81.00876465 25.36245117 80.04296875 24.8984375 C79.02138672 24.40859375 77.99980469 23.91875 76.94726562 23.4140625 C75.89216797 22.90617187 74.83707031 22.39828125 73.75 21.875 C72.67556641 21.359375 71.60113281 20.84375 70.49414062 20.3125 C67.84956583 19.0431041 65.20571516 17.77222395 62.5625 16.5 C63.2225 16.17 63.8825 15.84 64.5625 15.5 C64.5625 14.84 64.5625 14.18 64.5625 13.5 C63.86769531 13.37753906 63.17289063 13.25507812 62.45703125 13.12890625 C59.29286021 12.4414143 56.31441616 11.48142199 53.25 10.4375 C52.18136719 10.07527344 51.11273438 9.71304688 50.01171875 9.33984375 C49.20347656 9.06269531 48.39523437 8.78554687 47.5625 8.5 C47.5625 9.16 47.5625 9.82 47.5625 10.5 C49.5425 10.83 51.5225 11.16 53.5625 11.5 C50.55218256 12.43423645 49.69599732 12.54449911 46.5625 11.5 C46.5625 12.16 46.5625 12.82 46.5625 13.5 C44.5825 13.005 44.5825 13.005 42.5625 12.5 C42.5625 11.51 42.5625 10.52 42.5625 9.5 C40.08343282 9.18669458 37.6042514 8.87434161 35.125 8.5625 C34.09342773 8.43198242 34.09342773 8.43198242 33.04101562 8.29882812 C31.61026683 8.11915269 30.17909047 7.94285717 28.74755859 7.76953125 C27.3427573 7.59624626 25.93921619 7.41222625 24.53759766 7.21484375 C17.31129726 6.26868331 10.08972574 6.35329853 2.8125 6.375 C1.53117187 6.37113281 0.24984375 6.36726563 -1.0703125 6.36328125 C-9.23818963 6.3715651 -17.30471293 6.74454221 -25.4375 7.5 C-25.4375 7.17 -25.4375 6.84 -25.4375 6.5 C-16.23885069 4.39935581 -7.1330168 4.07622185 2.25 3.875 C3.74155668 3.83671752 5.23309369 3.79766029 6.72460938 3.7578125 C10.33705704 3.66295913 13.94965631 3.57853314 17.5625 3.5 C5.68457551 3.28914927 -5.86677565 3.50936312 -17.65234375 5.0625 C-20.96269383 5.44512044 -24.11086568 5.58329601 -27.4375 5.5 C-27.9325 4.51 -27.9325 4.51 -28.4375 3.5 C-28.4375 4.49 -28.4375 5.48 -28.4375 6.5 C-32.9931433 9.53709553 -37.14519547 11.08805499 -42.4375 12.5625 C-43.654375 12.90410156 -44.87125 13.24570313 -46.125 13.59765625 C-47.84989534 14.06752751 -49.57772112 14.53121472 -51.32275391 14.91967773 C-67.40149506 19.33195755 -83.60092238 29.01014589 -96.4375 39.5 C-97.0975 39.17 -97.7575 38.84 -98.4375 38.5 C-87.54063083 28.94470518 -74.75791915 20.8271097 -61.30859375 15.40234375 C-59.25665155 14.64778285 -59.25665155 14.64778285 -58.4375 12.5 C-60.0875 12.83 -61.7375 13.16 -63.4375 13.5 C-61.07796906 11.14046906 -59.65854383 11.00858587 -56.4375 10.5 C-56.4375 9.51 -56.4375 8.52 -56.4375 7.5 C-55.7775 7.5 -55.1175 7.5 -54.4375 7.5 C-54.7675 8.82 -55.0975 10.14 -55.4375 11.5 C-54.4475 11.5 -53.4575 11.5 -52.4375 11.5 C-51.4475 11.5 -50.4575 11.5 -49.4375 11.5 C-49.4375 10.84 -49.4375 10.18 -49.4375 9.5 C-50.4275 9.17 -51.4175 8.84 -52.4375 8.5 C-49.79457493 7.71794147 -47.14870066 6.94957463 -44.5 6.1875 C-43.42588867 5.86749023 -43.42588867 5.86749023 -42.33007812 5.54101562 C-28.32421049 1.54785336 -14.51509345 -0.08760598 0 0 Z " fill="#70592D" transform="translate(250.4375,79.5)"/>
<path d="M0 0 C0.72920654 0.26748047 1.45841309 0.53496094 2.2097168 0.81054688 C10.04697534 3.56650592 18.1061362 5.50924359 26.15893555 7.52929688 C27.3603418 7.83222656 28.56174805 8.13515625 29.79956055 8.44726562 C53.14636274 13.89669694 76.45335833 12.46370304 100.15893555 10.52929688 C100.15893555 10.85929687 100.15893555 11.18929688 100.15893555 11.52929688 C101.60913086 11.23925781 101.60913086 11.23925781 103.08862305 10.94335938 C108.15087891 9.9309082 108.15087891 9.9309082 113.21313477 8.91845703 C113.85524902 8.79003418 114.49736328 8.66161133 115.15893555 8.52929688 C118.49226888 7.86263021 121.82560221 7.19596354 125.15893555 6.52929688 C125.15893555 7.51929688 125.15893555 8.50929688 125.15893555 9.52929688 C120.70393555 10.02429688 120.70393555 10.02429688 116.15893555 10.52929688 C116.15893555 11.18929688 116.15893555 11.84929687 116.15893555 12.52929688 C76.88749516 22.54157004 34.77834418 21.29855784 -1.84106445 2.52929688 C-2.50106445 1.86929687 -3.16106445 1.20929688 -3.84106445 0.52929688 C-1.84106445 -0.47070312 -1.84106445 -0.47070312 0 0 Z " fill="#161109" transform="translate(183.841064453125,398.470703125)"/>
<path d="M0 0 C4.33398977 -0.37148484 6.38148176 0.71462006 10 3 C10.99 3 11.98 3 13 3 C15.31859201 4.56497742 17.49487516 6.15035684 19.6875 7.875 C20.29400391 8.33519531 20.90050781 8.79539062 21.52539062 9.26953125 C23.05943507 10.46018442 24.53508701 11.72525403 26 13 C26 13.66 26 14.32 26 15 C26.54140625 15.2165625 27.0828125 15.433125 27.640625 15.65625 C30.81645344 17.46499997 33.20728081 19.91723799 35.75 22.5 C36.25660156 22.99886719 36.76320313 23.49773437 37.28515625 24.01171875 C41 27.74658861 41 27.74658861 41 30 C41.66 30 42.32 30 43 30 C45.23923125 32.425545 47.08098232 35.1925995 49 37.875 C49.5765332 38.67768311 50.15306641 39.48036621 50.74707031 40.30737305 C54.73816117 45.96949905 58.37584551 51.76337408 61.75 57.8125 C62.37648438 58.93084229 62.37648438 58.93084229 63.015625 60.07177734 C66.79569043 67.05244715 66.79569043 67.05244715 67 71 C66.34 71.66 65.68 72.32 65 73 C65.37253906 73.81984375 65.74507813 74.6396875 66.12890625 75.484375 C66.83853516 77.10085937 66.83853516 77.10085937 67.5625 78.75 C68.03816406 79.81734375 68.51382813 80.8846875 69.00390625 81.984375 C69.9946154 84.98369837 70.16161779 86.13421241 69 89 C66.93508146 86.93508146 66.48675433 85.94002988 65.58984375 83.24609375 C65.19623657 82.10140625 65.19623657 82.10140625 64.79467773 80.93359375 C64.51180908 80.10988281 64.22894043 79.28617187 63.9375 78.4375 C52.19250036 45.76005418 30.19745592 21.39636105 1.6953125 2.2421875 C1.13585937 1.83226563 0.57640625 1.42234375 0 1 C0 0.67 0 0.34 0 0 Z " fill="#241C0E" transform="translate(341,109)"/>
<path d="M0 0 C-1.35795702 3.04445202 -3.12236516 5.59845458 -5.12011719 8.25805664 C-15.69643735 22.41262987 -23.72596703 38.09379102 -31.4375 53.9375 C-32.01661133 55.12093994 -32.59572266 56.30437988 -33.19238281 57.52368164 C-41.92670409 75.03365483 -41.92670409 75.03365483 -45.125 93.9375 C-45.09792969 95.09572266 -45.09792969 95.09572266 -45.0703125 96.27734375 C-45.04710937 96.84582031 -45.02390625 97.41429687 -45 98 C-45.99 98 -46.98 98 -48 98 C-50.76972915 92.46054169 -48.66833545 86.07506603 -46.8671875 80.54296875 C-46.58101562 79.70378906 -46.29484375 78.86460937 -46 78 C-45.57074219 76.69482422 -45.57074219 76.69482422 -45.1328125 75.36328125 C-44.43232208 73.23846032 -43.72129034 71.11783122 -43 69 C-46.33303003 68.8825125 -49.66551837 68.81232676 -53 68.75 C-53.93457031 68.71648437 -54.86914062 68.68296875 -55.83203125 68.6484375 C-62.8888636 68.54974054 -68.47990763 69.64991209 -73.71875 74.63574219 C-74.1415625 75.08594727 -74.564375 75.53615234 -75 76 C-74.6921025 72.99673748 -74.51576059 71.45508287 -72.20703125 69.41796875 C-62.36545349 64.36071427 -52.63163157 65.58089819 -42 67 C-41.54898926 66.02897339 -41.54898926 66.02897339 -41.08886719 65.03833008 C-31.17365966 43.78958319 -20.77911958 22.36332299 -6 4 C-6.76143311 4.21205078 -7.52286621 4.42410156 -8.30737305 4.64257812 C-11.76562063 5.60166546 -15.22649184 6.55092524 -18.6875 7.5 C-20.48477539 8.00080078 -20.48477539 8.00080078 -22.31835938 8.51171875 C-24.05375977 8.98544922 -24.05375977 8.98544922 -25.82421875 9.46875 C-26.88729248 9.76201172 -27.95036621 10.05527344 -29.0456543 10.35742188 C-31.8096232 10.95859253 -34.18457567 11.12745656 -37 11 C-34.63977163 8.63977163 -33.2642871 8.3867282 -30.0546875 7.59765625 C-28.56195313 7.22157227 -28.56195313 7.22157227 -27.0390625 6.83789062 C-25.99492187 6.58201172 -24.95078125 6.32613281 -23.875 6.0625 C-15.57915047 4.05143729 -15.57915047 4.05143729 -7.5078125 1.30859375 C-4 0 -4 0 0 0 Z " fill="#C1994E" transform="translate(205,183)"/>
<path d="M0 0 C-2.04329161 7.02381491 -4.9948768 13.42556461 -8.21875 19.97045898 C-10.00000145 23.63717515 -11.46829565 26.90748774 -12 31 C-6.19098941 28.03985284 -2.16016853 23.26322416 2.296875 18.625 C6.28555142 14.53864171 10.31152281 11.25252292 15 8 C15.804375 7.05125 16.60875 6.1025 17.4375 5.125 C20 3 20 3 22.0859375 2.91015625 C24.3125 3.1875 24.3125 3.1875 28 4 C28.495 5.485 28.495 5.485 29 7 C28.525625 7.886875 28.05125 8.77375 27.5625 9.6875 C25.5999369 13.84813378 25.76474733 16.45178175 26 21 C31.65535883 20.51982802 35.50619513 18.24213481 40.25 15.375 C42.8081201 13.83462661 45.35460239 12.39387542 48 11 C48.99 11.495 48.99 11.495 50 12 C47.32622836 13.83340481 44.63394322 15.63764088 41.9375 17.4375 C40.80924805 18.2119043 40.80924805 18.2119043 39.65820312 19.00195312 C35.14708496 21.98983659 31.58678294 23.97904956 26 24 C23.0625 21.75 23.0625 21.75 21 19 C21 18.01 21 17.02 21 16 C20.4225 16.350625 19.845 16.70125 19.25 17.0625 C16.64198224 18.14917407 15.60582371 17.93065133 13 17 C12.505 15.02 12.505 15.02 12 13 C9.60275688 15.22765452 7.20746553 17.45739721 4.8125 19.6875 C4.13896484 20.31333984 3.46542969 20.93917969 2.77148438 21.58398438 C1.78051758 22.50727539 1.78051758 22.50727539 0.76953125 23.44921875 C0.12161621 24.05217773 -0.52629883 24.65513672 -1.19384766 25.27636719 C-2.77741085 26.78758051 -4.28417633 28.34152534 -5.78515625 29.93359375 C-8 32 -8 32 -11.25 32.375 C-14 32 -14 32 -15 31 C-15.7543791 24.44470571 -13.49869597 20.01545916 -10.5625 14.25 C-9.72929935 12.5682872 -8.89721879 10.88601887 -8.06640625 9.203125 C-7.69459229 8.46739258 -7.32277832 7.73166016 -6.93969727 6.97363281 C-5.88863848 4.86976346 -5.88863848 4.86976346 -5 2 C-5.51949219 2.45890625 -6.03898437 2.9178125 -6.57421875 3.390625 C-10.31712166 6.68382608 -14.06978801 9.92952189 -18 13 C-18 12.34 -18 11.68 -18 11 C-18.66 11 -19.32 11 -20 11 C-18.71869554 8.43739107 -17.5324952 8.2662476 -15 7 C-13.59304276 5.85054248 -12.21828651 4.66075901 -10.875 3.4375 C-6.82068699 -0.2419803 -5.45843393 -1.29278698 0 0 Z " fill="#C69D51" transform="translate(323,245)"/>
<path d="M0 0 C4.9940721 4.19956063 9.81830067 8.55803596 14.55957031 13.0402832 C17.85776508 16.11092218 21.20882108 18.60023444 25 21 C24.34 20.01 23.68 19.02 23 18 C26.13224737 19.39126522 28.77100326 21.23400938 31.51513672 23.27416992 C44.39976743 32.84244973 58.20332078 39.88062867 73 46 C68.80140483 47.39953172 65.99135489 45.74567611 62.0625 44.1875 C61.34642578 43.91357422 60.63035156 43.63964844 59.89257812 43.35742188 C57.06540285 42.26480641 54.34810912 41.18961087 51.68359375 39.73828125 C49.80799214 38.69144897 49.80799214 38.69144897 47 40 C44.50621635 38.75609832 42.22696973 37.47406687 39.875 36 C39.19993408 35.58427734 38.52486816 35.16855469 37.8293457 34.74023438 C26.79049948 27.84773813 17.07294304 19.3117047 8 10 C7.31550781 9.33742188 6.63101563 8.67484375 5.92578125 7.9921875 C5.18714844 7.27289063 4.44851562 6.55359375 3.6875 5.8125 C2.99011719 5.13832031 2.29273438 4.46414063 1.57421875 3.76953125 C0 2 0 2 0 0 Z " fill="#251D0F" transform="translate(127,357)"/>
<path d="M0 0 C4.47471601 0.58951717 8.80063242 1.38574169 13.1875 2.4375 C35.74581344 7.2477286 58.15378801 5.86428084 81 4 C81 4.33 81 4.66 81 5 C82.45019531 4.70996094 82.45019531 4.70996094 83.9296875 4.4140625 C88.99194336 3.40161133 88.99194336 3.40161133 94.05419922 2.38916016 C94.69631348 2.2607373 95.33842773 2.13231445 96 2 C101 1 101 1 106 0 C106 0.99 106 1.98 106 3 C101.545 3.495 101.545 3.495 97 4 C97 4.66 97 5.32 97 6 C94.31466436 6.67662 91.627275 7.34146121 88.9375 8 C87.80924805 8.28617187 87.80924805 8.28617187 86.65820312 8.578125 C81.97226664 9.7141096 77.82067454 10.20486266 73 10 C73 9.67 73 9.34 73 9 C75.475 8.505 75.475 8.505 78 8 C76.24816406 8.23976563 76.24816406 8.23976563 74.4609375 8.484375 C67.53349907 9.24717767 60.58722713 9.24404696 53.625 9.25 C52.55919708 9.25101212 52.55919708 9.25101212 51.47186279 9.25204468 C33.41014564 9.2248609 17.24943087 6.21398568 0 1 C0 0.67 0 0.34 0 0 Z " fill="#3B2F18" transform="translate(203,405)"/>
<path d="M0 0 C0.66 0 1.32 0 2 0 C1.35667287 3.23635275 0.1917504 5.61814734 -1.51953125 8.4296875 C-2.04144043 9.29650146 -2.56334961 10.16331543 -3.10107422 11.05639648 C-3.94822998 12.45160522 -3.94822998 12.45160522 -4.8125 13.875 C-9.47000362 21.65669135 -14.02266105 29.48062991 -18.375 37.4375 C-18.87233643 38.34636963 -19.36967285 39.25523926 -19.88208008 40.19165039 C-23.44416412 46.7852444 -26.60583412 53.48320284 -29.5 60.39453125 C-31 63 -31 63 -33.1875 63.88671875 C-33.785625 63.92410156 -34.38375 63.96148437 -35 64 C-30.69447827 50.14839726 -23.31026147 37.47145714 -15.9375 25.0625 C-14.9472583 23.39441284 -14.9472583 23.39441284 -13.93701172 21.69262695 C-4.12513872 5.36177371 -4.12513872 5.36177371 0 0 Z " fill="#C99F52" transform="translate(235,192)"/>
<path d="M0 0 C2.64 0.33 5.28 0.66 8 1 C8.33 1.99 8.66 2.98 9 4 C8.525625 4.886875 8.05125 5.77375 7.5625 6.6875 C5.5999369 10.84813378 5.76474733 13.45178175 6 18 C11.65535883 17.51982802 15.50619513 15.24213481 20.25 12.375 C22.8081201 10.83462661 25.35460239 9.39387542 28 8 C28.66 8.33 29.32 8.66 30 9 C27.32622836 10.83340481 24.63394322 12.63764088 21.9375 14.4375 C21.18533203 14.95376953 20.43316406 15.47003906 19.65820312 16.00195312 C15.14708496 18.98983659 11.58678294 20.97904956 6 21 C3.0625 18.75 3.0625 18.75 1 16 C1 15.01 1 14.02 1 13 C0.401875 13.350625 -0.19625 13.70125 -0.8125 14.0625 C-3 15 -3 15 -6 14 C-5.34 14 -4.68 14 -4 14 C-3.9071875 12.7315625 -3.9071875 12.7315625 -3.8125 11.4375 C-2.7594782 6.98240777 -0.80339085 4.59409083 2 1 C1.34 0.67 0.68 0.34 0 0 Z " fill="#C89F51" transform="translate(343,248)"/>
<path d="M0 0 C2.6929769 4.03946535 3.47483497 8.13493931 4.625 12.8125 C4.85445313 13.70259766 5.08390625 14.59269531 5.3203125 15.50976562 C8.12163301 26.75673398 8.12163301 26.75673398 6 31 C5.99565519 32.46836548 6.0581931 33.93724959 6.15625 35.40234375 C6.23661499 36.7313269 6.23661499 36.7313269 6.31860352 38.0871582 C6.40839478 39.49807739 6.40839478 39.49807739 6.5 40.9375 C6.92443185 48.3881449 7.12779772 55.59123649 6 63 C6.66 63 7.32 63 8 63 C8 55.08 8 47.16 8 39 C8.33 39 8.66 39 9 39 C9 47.25 9 55.5 9 64 C12.96 64.99 16.92 65.98 21 67 C16.59232396 68.10191901 15.1077065 67.58706842 11 66 C11 67.98 11 69.96 11 72 C9.10786631 69.61426621 7.97608217 67.92824652 7 65 C6.01 65.99 6.01 65.99 5 67 C4.67 66.01 4.34 65.02 4 64 C3.34 63.34 2.68 62.68 2 62 C2.99 62 3.98 62 5 62 C4.79510354 44.71627665 3.90445301 28.2329582 0.4453125 11.24267578 C-1.27910238 2.55820477 -1.27910238 2.55820477 0 0 Z " fill="#40321A" transform="translate(411,197)"/>
<path d="M0 0 C-0.33 0.33 -0.66 0.66 -1 1 C-0.01 1.33 0.98 1.66 2 2 C2 2.66 2 3.32 2 4 C0.58398286 4.48108275 -0.83284437 4.95978141 -2.25 5.4375 C-3.03890625 5.70433594 -3.8278125 5.97117187 -4.640625 6.24609375 C-7 7 -7 7 -8.82568359 7.41040039 C-24.91991039 11.77459955 -41.16400324 21.51062056 -54 32 C-54.66 31.67 -55.32 31.34 -56 31 C-45.10313083 21.44470518 -32.32041915 13.3271097 -18.87109375 7.90234375 C-16.81915155 7.14778285 -16.81915155 7.14778285 -16 5 C-17.65 5.33 -19.3 5.66 -21 6 C-18.64046906 3.64046906 -17.22104383 3.50858587 -14 3 C-14 2.01 -14 1.02 -14 0 C-13.34 0 -12.68 0 -12 0 C-12.33 1.32 -12.66 2.64 -13 4 C-12.01 4 -11.02 4 -10 4 C-9.01 4 -8.02 4 -7 4 C-7 3.34 -7 2.68 -7 2 C-7.99 1.67 -8.98 1.34 -10 1 C-3.71428571 -1.42857143 -3.71428571 -1.42857143 0 0 Z " fill="#4E3E20" transform="translate(208,87)"/>
<path d="M0 0 C4.68182601 0.43420161 7.79049911 1.90280556 11.875 4.109375 C12.54789062 4.45742187 13.22078125 4.80546875 13.9140625 5.1640625 C18.29953941 7.44992884 22.5939797 9.88441014 26.875 12.359375 C25.1875 13.984375 25.1875 13.984375 22.875 15.359375 C20.57543945 14.60791016 20.57543945 14.60791016 17.875 13.359375 C16.99094482 12.95122559 16.10688965 12.54307617 15.19604492 12.12255859 C14.25865479 11.67219238 13.32126465 11.22182617 12.35546875 10.7578125 C11.33388672 10.26796875 10.31230469 9.778125 9.25976562 9.2734375 C8.20466797 8.76554687 7.14957031 8.25765625 6.0625 7.734375 C4.45084961 6.9609375 4.45084961 6.9609375 2.80664062 6.171875 C0.16206583 4.9024791 -2.48178484 3.63159895 -5.125 2.359375 C-3.125 0.359375 -3.125 0.359375 0 0 Z " fill="#2E2412" transform="translate(318.125,93.640625)"/>
<path d="M0 0 C2.64 0.33 5.28 0.66 8 1 C8.33 1.99 8.66 2.98 9 4 C8.525625 4.886875 8.05125 5.77375 7.5625 6.6875 C5.5999369 10.84813378 5.76474733 13.45178175 6 18 C11.65535883 17.51982802 15.50619513 15.24213481 20.25 12.375 C22.8081201 10.83462661 25.35460239 9.39387542 28 8 C28.66 8.33 29.32 8.66 30 9 C27.32622836 10.83340481 24.63394322 12.63764088 21.9375 14.4375 C21.18533203 14.95376953 20.43316406 15.47003906 19.65820312 16.00195312 C15.14526266 18.99104356 11.58811122 20.97205944 6 21 C3.0625 18.8125 3.0625 18.8125 1 16 C1 14.68 1 13.36 1 12 C0.01 11.67 -0.98 11.34 -2 11 C-0.02 8.03 1.96 5.06 4 2 C2.68 1.34 1.36 0.68 0 0 Z " fill="#CBA153" transform="translate(224,248)"/>
<path d="M0 0 C0.66 0.66 1.32 1.32 2 2 C-0.87456792 2.33747548 -3.74956059 2.67010463 -6.625 3 C-7.43324219 3.09539062 -8.24148437 3.19078125 -9.07421875 3.2890625 C-13.40973739 3.78253617 -17.62737311 4.11320717 -22 4 C-22.33 3.34 -22.66 2.68 -23 2 C-23 2.99 -23 3.98 -23 5 C-26.9165307 7.61102047 -30.24967068 9.51278674 -35 10 C-35.99 9.34 -36.98 8.68 -38 8 C-40.11280345 7.36707617 -40.11280345 7.36707617 -42 7 C-40.35 6.67 -38.7 6.34 -37 6 C-37 5.34 -37 4.68 -37 4 C-33.08916741 3.11756736 -29.17078617 2.27449682 -25.25 1.4375 C-24.15816406 1.19064453 -23.06632812 0.94378906 -21.94140625 0.68945312 C-14.52168795 -0.86912676 -7.49326737 -1.5904934 0 0 Z " fill="#2B2211" transform="translate(245,81)"/>
<path d="M0 0 C-1.2491742 3.45925163 -2.67527795 6.14693203 -5 9 C-4.34 9.66 -3.68 10.32 -3 11 C-5.35438733 12.42944945 -6.48032433 13.08661261 -9.25 12.625 C-9.8275 12.41875 -10.405 12.2125 -11 12 C-10.67 9.69 -10.34 7.38 -10 5 C-10.58007812 5.22816406 -11.16015625 5.45632812 -11.7578125 5.69140625 C-16.57455796 7.46390499 -19.88474517 8.44276418 -25 7 C-24.67 6.34 -24.34 5.68 -24 5 C-22.0509375 4.8453125 -22.0509375 4.8453125 -20.0625 4.6875 C-15.09813636 4.28370009 -11.60581502 2.47272065 -7.359375 -0.0390625 C-4.48238018 -1.21081867 -2.93389346 -0.86352183 0 0 Z " fill="#BC954C" transform="translate(228,250)"/>
<path d="M0 0 C0.66 0.33 1.32 0.66 2 1 C3.50383906 7.94162737 3.18273602 15.43024749 3.1875 22.5 C3.19974609 23.48742187 3.21199219 24.47484375 3.22460938 25.4921875 C3.22654297 26.43320313 3.22847656 27.37421875 3.23046875 28.34375 C3.23457764 29.19130859 3.23868652 30.03886719 3.24291992 30.91210938 C3 33 3 33 1 35 C0.01 34.67 -0.98 34.34 -2 34 C-2.049377 29.47934572 -2.08570823 24.95884783 -2.10986328 20.43798828 C-2.11993118 18.89954902 -2.13358646 17.36112893 -2.15087891 15.82275391 C-2.17509317 13.61355867 -2.18647491 11.40461605 -2.1953125 9.1953125 C-2.20563507 8.50567413 -2.21595764 7.81603577 -2.22659302 7.10549927 C-2.22699478 5.40199094 -2.12191026 3.69914057 -2 2 C-1.34 1.34 -0.68 0.68 0 0 Z " fill="#030201" transform="translate(419,226)"/>
<path d="M0 0 C0 0.66 0 1.32 0 2 C-5.90786226 2.22108424 -11.4785354 1.98154381 -17.3125 1 C-25.2491428 -0.15248881 -33.11282994 -0.19141291 -41.125 -0.1875 C-42.38739502 -0.18814453 -43.64979004 -0.18878906 -44.95043945 -0.18945312 C-53.00695142 -0.14323283 -60.97721274 0.2665893 -69 1 C-69 0.67 -69 0.34 -69 0 C-60.16915737 -2.05563269 -51.46850133 -2.43174601 -42.44848633 -2.63305664 C-40.07002267 -2.68732835 -37.69242839 -2.75773588 -35.31445312 -2.83007812 C-23.28973987 -3.15984737 -11.77745496 -2.68380058 0 0 Z " fill="#392D17" transform="translate(294,86)"/>
<path d="M0 0 C0.66 0.66 1.32 1.32 2 2 C1.625 4.625 1.625 4.625 1 7 C0.34 6.67 -0.32 6.34 -1 6 C-1 4.68 -1 3.36 -1 2 C-5.59351075 3.18118848 -7.39181892 5.42368921 -9.984375 9.1484375 C-11.04864615 11.08868568 -11.56204404 12.83878257 -12 15 C-11.0925 14.67 -10.185 14.34 -9.25 14 C-6 13 -6 13 -2 13 C-2.33 13.99 -2.66 14.98 -3 16 C-4.79008467 16.22151549 -6.58218162 16.42682213 -8.375 16.625 C-9.37273437 16.74101562 -10.37046875 16.85703125 -11.3984375 16.9765625 C-12.25695312 16.98429687 -13.11546875 16.99203125 -14 17 C-14.66 16.34 -15.32 15.68 -16 15 C-16 9.14103854 -12.76830669 5.18811804 -9 1 C-5.98675805 -0.50662097 -3.31713623 -0.17770373 0 0 Z " fill="#CDA353" transform="translate(290,246)"/>
<path d="M0 0 C4.33398977 -0.37148484 6.38148176 0.71462006 10 3 C10.99 3 11.98 3 13 3 C13.10779785 3.60650391 13.2155957 4.21300781 13.32666016 4.83789062 C14.43928496 8.41055388 17.54355254 10.23988099 20.375 12.5 C27.23252373 18.14945339 33.18076324 24.30193973 39 31 C38.67 31.66 38.34 32.32 38 33 C37.15179688 32.11699219 36.30359375 31.23398438 35.4296875 30.32421875 C25.04940167 19.65260365 14.05308868 10.54693098 1.6953125 2.2421875 C1.13585937 1.83226563 0.57640625 1.42234375 0 1 C0 0.67 0 0.34 0 0 Z " fill="#503F20" transform="translate(341,109)"/>
<path d="M0 0 C4.47471601 0.58951717 8.80063242 1.38574169 13.1875 2.4375 C30.76328096 6.24466181 49.11135008 6.68726519 67 8 C67 8.33 67 8.66 67 9 C43.48520969 9.45648423 22.61821351 7.83680767 0 1 C0 0.67 0 0.34 0 0 Z " fill="#554322" transform="translate(203,405)"/>
<path d="M0 0 C1.32 0.33 2.64 0.66 4 1 C3.855625 1.53625 3.71125 2.0725 3.5625 2.625 C2.93763948 5.03815731 2.93763948 5.03815731 2.71484375 7.71484375 C1.71922164 12.29035302 -0.64825617 15.80354077 -3.1171875 19.70117188 C-5.69279159 23.94527861 -6.60368454 27.15132802 -7 32 C-7.66 31.67 -8.32 31.34 -9 31 C-10.14711311 22.68342996 -7.0937215 17.87209646 -2.84765625 11.0390625 C-0.91365439 8.11200778 -0.91365439 8.11200778 0 5 C-2.64 5.66 -5.28 6.32 -8 7 C-5.94766315 4.7522025 -4.99332739 3.9977758 -2 3 C-1.34 2.01 -0.68 1.02 0 0 Z " fill="#CEA354" transform="translate(262,249)"/>
<path d="M0 0 C-3.8357293 2.55715287 -7.91627136 3.6544723 -12.28710938 4.96875 C-17.96177738 6.76374008 -22.41873458 9.16906109 -26.375 13.75 C-28.51887884 18.03775768 -28.52937142 20.23565719 -28 25 C-26.53888984 27.79897943 -26.53888984 27.79897943 -25 30 C-25.33 30.66 -25.66 31.32 -26 32 C-29.7800319 28.34190461 -31.16062785 26.52555899 -31.3125 21.25 C-31.2272797 16.30722282 -30.46165863 13.71495073 -27 10 C-19.68492558 3.72543186 -9.73124087 -0.46854123 0 0 Z " fill="#B8924B" transform="translate(168,194)"/>
<path d="M0 0 C4.9940721 4.19956063 9.81830067 8.55803596 14.55957031 13.0402832 C17.85776508 16.11092218 21.20882108 18.60023444 25 21 C24.34 20.01 23.68 19.02 23 18 C26.81684226 19.55500981 29.19195732 22.03595495 32 25 C28.1284453 26.29051823 26.71546654 25.58174044 23 24 C20.40234375 22.01171875 20.40234375 22.01171875 17.9375 19.6875 C17.07253906 18.87796875 16.20757812 18.0684375 15.31640625 17.234375 C12.84568458 14.85114937 10.39575891 12.45880519 8 10 C7.31550781 9.33742188 6.63101563 8.67484375 5.92578125 7.9921875 C5.18714844 7.27289063 4.44851562 6.55359375 3.6875 5.8125 C2.99011719 5.13832031 2.29273438 4.46414063 1.57421875 3.76953125 C0 2 0 2 0 0 Z " fill="#352A15" transform="translate(127,357)"/>
<path d="M0 0 C2.35716404 2.15454249 3.78966144 4.19719874 5.1875 7.0625 C5.53167969 7.75472656 5.87585938 8.44695312 6.23046875 9.16015625 C7 11 7 11 7 13 C7.66 12.34 8.32 11.68 9 11 C8.484375 10.05125 7.96875 9.1025 7.4375 8.125 C6.963125 7.09375 6.48875 6.0625 6 5 C6.33 4.34 6.66 3.68 7 3 C7.89429374 4.5725165 8.76487427 6.15853741 9.625 7.75 C10.11226563 8.63171875 10.59953125 9.5134375 11.1015625 10.421875 C11.39804687 11.27265625 11.69453125 12.1234375 12 13 C11.66871094 13.64453125 11.33742188 14.2890625 10.99609375 14.953125 C9.6623718 17.09215688 9.6623718 17.09215688 10.93359375 19.875 C11.42988281 20.90625 11.92617188 21.9375 12.4375 23 C15.07133411 28.50148117 15.07133411 28.50148117 14.66015625 31.375 C14.33337891 32.179375 14.33337891 32.179375 14 33 C11.9008642 30.9008642 11.40429693 29.74719118 10.44921875 27 C10.16506104 26.19941162 9.88090332 25.39882324 9.58813477 24.57397461 C9.29092529 23.72456299 8.99371582 22.87515137 8.6875 22 C6.43071392 15.68230246 4.07314387 9.61613782 0.84765625 3.71484375 C0 2 0 2 0 0 Z " fill="#6D562C" transform="translate(396,165)"/>
<path d="M0 0 C0 4.03835683 -2.03778616 6.10166418 -4.3125 9.25 C-11.21367216 19.12807428 -16.03103165 30.06285308 -21 41 C-22.11401367 39.27856445 -22.11401367 39.27856445 -23 37 C-22.3918457 34.85620117 -22.3918457 34.85620117 -21.17578125 32.54296875 C-20.72895996 31.68413086 -20.28213867 30.82529297 -19.82177734 29.94042969 C-19.32371582 29.03196289 -18.8256543 28.12349609 -18.3125 27.1875 C-17.56540771 25.79192871 -17.56540771 25.79192871 -16.80322266 24.36816406 C-12.1740419 15.92270353 -6.86809338 6.86809338 0 0 Z " fill="#524121" transform="translate(124,146)"/>
<path d="M0 0 C-2.475 1.485 -2.475 1.485 -5 3 C-4.67 4.32 -4.34 5.64 -4 7 C-6.65300918 8.73465985 -7.84506573 9.01580962 -11.0625 8.6875 C-14 8 -14 8 -17 7 C-17.969375 7.33 -18.93875 7.66 -19.9375 8 C-23.10817903 9.03532376 -23.96592934 8.94364185 -27 8 C-26.41508789 7.79842285 -25.83017578 7.5968457 -25.22753906 7.38916016 C-22.56737162 6.47060571 -19.90868088 5.54784791 -17.25 4.625 C-16.32960938 4.30789063 -15.40921875 3.99078125 -14.4609375 3.6640625 C-13.57148438 3.3546875 -12.68203125 3.0453125 -11.765625 2.7265625 C-10.94868164 2.44377441 -10.13173828 2.16098633 -9.29003906 1.86962891 C-6.98103419 1.05522874 -6.98103419 1.05522874 -4.88964844 -0.17041016 C-3 -1 -3 -1 0 0 Z " fill="#312714" transform="translate(323,397)"/>
<path d="M0 0 C0.33 0 0.66 0 1 0 C2.3302664 9.97699803 2.09502917 19.95614824 2 30 C1.01 30.33 0.02 30.66 -1 31 C-1 29.68 -1 28.36 -1 27 C-0.34 27 0.32 27 1 27 C1 26.01 1 25.02 1 24 C0.34 24 -0.32 24 -1 24 C-1.02887236 20.18751574 -1.04675492 16.3750593 -1.0625 12.5625 C-1.07087891 11.47388672 -1.07925781 10.38527344 -1.08789062 9.26367188 C-1.09111328 8.22919922 -1.09433594 7.19472656 -1.09765625 6.12890625 C-1.10289307 5.17056885 -1.10812988 4.21223145 -1.11352539 3.22485352 C-1 1 -1 1 0 0 Z " fill="#161109" transform="translate(87,230)"/>
<path d="M0 0 C1.12280273 1.72192383 1.12280273 1.72192383 2 4 C1.32836914 6.1472168 1.32836914 6.1472168 0.03515625 8.44921875 C-0.67157227 9.72249023 -0.67157227 9.72249023 -1.39257812 11.02148438 C-1.90240234 11.90126953 -2.41222656 12.78105469 -2.9375 13.6875 C-3.41251953 14.54794922 -3.88753906 15.40839844 -4.37695312 16.29492188 C-7.76016432 22.28894225 -11.6364198 27.68272011 -16 33 C-16 29.54020041 -15.25499496 28.36993914 -13.515625 25.4296875 C-12.99226563 24.5325 -12.46890625 23.6353125 -11.9296875 22.7109375 C-11.37539063 21.77507812 -10.82109375 20.83921875 -10.25 19.875 C-6.4213821 13.39016393 -2.87787942 6.96738468 0 0 Z " fill="#584624" transform="translate(406,314)"/>
<path d="M0 0 C0.99 0 1.98 0 3 0 C3 0.99 3 1.98 3 3 C2.34 3 1.68 3 1 3 C1 4.32 1 5.64 1 7 C1.83144531 6.69964844 2.66289063 6.39929688 3.51953125 6.08984375 C4.60621094 5.70957031 5.69289062 5.32929688 6.8125 4.9375 C7.89144531 4.55464844 8.97039062 4.17179687 10.08203125 3.77734375 C13 3 13 3 16 4 C-12.38427228 13.29241806 -12.38427228 13.29241806 -27 12 C-27.99 11.34 -28.98 10.68 -30 10 C-29.04480469 10.02320313 -28.08960938 10.04640625 -27.10546875 10.0703125 C-19.93240145 10.17043507 -13.31484189 9.99590973 -6.26953125 8.4375 C-4 8 -4 8 0 8 C0 5.36 0 2.72 0 0 Z " fill="#8F713A" transform="translate(85,254)"/>
<path d="M0 0 C-2.75676311 1.83784207 -4.33146991 2.48592586 -7.45703125 3.25390625 C-8.32263672 3.46853516 -9.18824219 3.68316406 -10.08007812 3.90429688 C-10.98177734 4.12150391 -11.88347656 4.33871094 -12.8125 4.5625 C-13.70259766 4.78357422 -14.59269531 5.00464844 -15.50976562 5.23242188 C-22.79882521 7.02091611 -29.49080786 8.12946883 -37 8 C-37 7.67 -37 7.34 -37 7 C-31.06 6.505 -31.06 6.505 -25 6 C-25 5.34 -25 4.68 -25 4 C-24.16021606 3.82609741 -24.16021606 3.82609741 -23.3034668 3.64868164 C-20.76442215 3.12180947 -18.22595912 2.59218569 -15.6875 2.0625 C-14.36588867 1.78889648 -14.36588867 1.78889648 -13.01757812 1.50976562 C-12.17001953 1.33251953 -11.32246094 1.15527344 -10.44921875 0.97265625 C-9.27879028 0.72914429 -9.27879028 0.72914429 -8.0847168 0.48071289 C-2.45341271 -0.81780424 -2.45341271 -0.81780424 0 0 Z " fill="#100D06" transform="translate(309,404)"/>
<path d="M0 0 C0.66 0.33 1.32 0.66 2 1 C-3.55261172 5.77746079 -9.52138276 9.66016856 -15.8125 13.375 C-16.55363037 13.81569824 -17.29476074 14.25639648 -18.05834961 14.71044922 C-18.76741455 15.12311035 -19.47647949 15.53577148 -20.20703125 15.9609375 C-21.15799683 16.51467041 -21.15799683 16.51467041 -22.12817383 17.07958984 C-24.06882805 18.03384398 -25.88936511 18.5539636 -28 19 C-28.33 18.34 -28.66 17.68 -29 17 C-28.47680176 16.73372803 -27.95360352 16.46745605 -27.41455078 16.19311523 C-13.18378167 8.95403465 -13.18378167 8.95403465 0 0 Z " fill="#524121" transform="translate(354,381)"/>
<path d="M0 0 C0.66 0.66 1.32 1.32 2 2 C-0.87456792 2.33747548 -3.74956059 2.67010463 -6.625 3 C-7.43324219 3.09539062 -8.24148437 3.19078125 -9.07421875 3.2890625 C-13.39807708 3.78120898 -17.64032833 4.22004652 -22 4 C-22.33 3.67 -22.66 3.34 -23 3 C-24.99958364 2.95919217 -27.00045254 2.95745644 -29 3 C-29 2.67 -29 2.34 -29 2 C-9.20435283 -2.15145681 -9.20435283 -2.15145681 0 0 Z " fill="#40321A" transform="translate(245,81)"/>
<path d="M0 0 C1.18529297 0.39832031 1.18529297 0.39832031 2.39453125 0.8046875 C12.54300902 3.98261082 22.43645077 5.14410475 33 6 C32.67 6.99 32.34 7.98 32 9 C9.19872014 6.03751649 9.19872014 6.03751649 0 3 C0 2.01 0 1.02 0 0 Z " fill="#9B7B3F" transform="translate(166,251)"/>
<path d="M0 0 C0.33 0 0.66 0 1 0 C1 8.25 1 16.5 1 25 C4.96 25.99 8.92 26.98 13 28 C8.59232396 29.10191901 7.1077065 28.58706842 3 27 C3 28.98 3 30.96 3 33 C1.10786631 30.61426621 -0.02391783 28.92824652 -1 26 C-1.66 26.66 -2.32 27.32 -3 28 C-3.33 27.01 -3.66 26.02 -4 25 C-4.66 24.34 -5.32 23.68 -6 23 C-4.02 23.33 -2.04 23.66 0 24 C0 16.08 0 8.16 0 0 Z " fill="#68522A" transform="translate(419,236)"/>
<path d="M0 0 C5.84708835 2.20463987 11.42092729 5.02411982 17.05078125 7.72265625 C20.99317216 9.6038286 24.9089947 11.4574898 29 13 C24.92616725 14.35794425 22.32363314 12.92949798 18.5 11.4375 C17.79037109 11.16663574 17.08074219 10.89577148 16.34960938 10.61669922 C10.28314699 8.2397091 4.59494249 5.34274106 -1 2 C-0.67 1.34 -0.34 0.68 0 0 Z " fill="#564423" transform="translate(171,390)"/>
<path d="M0 0 C0.33 0 0.66 0 1 0 C0.67 4.29 0.34 8.58 0 13 C0.66 13 1.32 13 2 13 C2 11.35 2 9.7 2 8 C2.33 8 2.66 8 3 8 C2.67 13.28 2.34 18.56 2 24 C1.67 24 1.34 24 1 24 C0.67 21.03 0.34 18.06 0 15 C-0.33 22.59 -0.66 30.18 -1 38 C-1.33 38 -1.66 38 -2 38 C-2.0590068 33.91672939 -2.09392935 29.83357118 -2.125 25.75 C-2.14175781 24.61046875 -2.15851563 23.4709375 -2.17578125 22.296875 C-2.21917947 14.65878746 -1.5140841 7.48677886 0 0 Z " fill="#4E3E20" transform="translate(87,216)"/>
<path d="M0 0 C0.66 0.33 1.32 0.66 2 1 C1.3146345 5.99450259 -0.02015651 10.5967594 -1.5625 15.375 C-1.79646484 16.11105469 -2.03042969 16.84710938 -2.27148438 17.60546875 C-2.8440028 19.40481238 -3.42149314 21.20257277 -4 23 C-4.99 23 -5.98 23 -7 23 C-6.42389687 17.45044957 -4.97901452 12.73970503 -2.9375 7.5625 C-2.65583984 6.83095703 -2.37417969 6.09941406 -2.08398438 5.34570312 C-1.39586753 3.56126454 -0.69885394 1.78026095 0 0 Z " fill="#45371C" transform="translate(100,186)"/>
<path d="M0 0 C0.99 0.33 1.98 0.66 3 1 C0.36605507 3.02801567 -2.3004733 4.85205806 -5.15234375 6.55859375 C-6.31733398 7.26145508 -6.31733398 7.26145508 -7.50585938 7.97851562 C-9.12235795 8.94841477 -10.73954234 9.91717181 -12.35742188 10.88476562 C-16.46717214 13.36695945 -20.33753879 15.87026042 -24 19 C-24.66 18.67 -25.32 18.34 -26 18 C-20.15675499 12.97143819 -14.05812867 8.57442188 -7.5625 4.4375 C-6.86447266 3.98391113 -6.16644531 3.53032227 -5.44726562 3.06298828 C-3.68107105 1.95847176 -1.84398309 0.96908532 0 0 Z " fill="#6B552C" transform="translate(178,100)"/>
<path d="M0 0 C5.96652354 1.57013777 10.82909025 4.75029782 16 8 C14.1875 9.5625 14.1875 9.5625 12 11 C11.01 10.67 10.02 10.34 9 10 C8.67 9.01 8.34 8.02 8 7 C5.91187542 5.54355243 5.91187542 5.54355243 3.4375 4.3125 C2.61121094 3.87550781 1.78492188 3.43851562 0.93359375 2.98828125 C0.29550781 2.66214844 -0.34257812 2.33601563 -1 2 C-0.67 1.34 -0.34 0.68 0 0 Z " fill="#514021" transform="translate(329,98)"/>
<path d="M0 0 C3 3 3 3 3.375 5.875 C3.14907806 11.68621443 1.41751054 17.38902077 0 23 C-0.99 22.67 -1.98 22.34 -3 22 C-2.67 19.36 -2.34 16.72 -2 14 C-1.01 14 -0.02 14 1 14 C0.34 13.67 -0.32 13.34 -1 13 C-0.67 8.71 -0.34 4.42 0 0 Z " fill="#3F3219" transform="translate(418,267)"/>
<path d="M0 0 C2.64 0 5.28 0 8 0 C8 0.99 8 1.98 8 3 C7.34 3 6.68 3 6 3 C6 2.34 6 1.68 6 1 C4.68 1 3.36 1 2 1 C2 2.65 2 4.3 2 6 C3.65 5.67 5.3 5.34 7 5 C6.67 5.99 6.34 6.98 6 8 C4.68 7.67 3.36 7.34 2 7 C2 8.65 2 10.3 2 12 C3.65 12 5.3 12 7 12 C7.33 11.34 7.66 10.68 8 10 C8 10.99 8 11.98 8 13 C5.36 13 2.72 13 0 13 C0 8.71 0 4.42 0 0 Z " fill="#A17F41" transform="translate(230,293)"/>
<path d="M0 0 C0.99 0 1.98 0 3 0 C2.42934122 6.41991126 0.32655091 12.01589463 -2 18 C-2.66 17.34 -3.32 16.68 -4 16 C-3.828125 14.08203125 -3.828125 14.08203125 -3.25 11.8125 C-3.05148437 11.01585937 -2.85296875 10.21921875 -2.6484375 9.3984375 C-1.79838589 6.2542707 -0.92985536 3.12165729 0 0 Z " fill="#3B2F18" transform="translate(414,290)"/>
<path d="M0 0 C0 0.33 0 0.66 0 1 C-4.0527516 1.98248524 -7.83861737 2.08159574 -12 2 C-12 2.99 -12 3.98 -12 5 C-17.94 4.34 -23.88 3.68 -30 3 C-30 2.67 -30 2.34 -30 2 C-28.85402344 1.93941406 -27.70804687 1.87882812 -26.52734375 1.81640625 C-24.99738703 1.73193011 -23.46743959 1.64728573 -21.9375 1.5625 C-20.80924805 1.50352539 -20.80924805 1.50352539 -19.65820312 1.44335938 C-13.06603062 1.07237131 -6.60786077 -0.16116734 0 0 Z " fill="#2A2111" transform="translate(284,409)"/>
<path d="M0 0 C6.510703 5.47490934 12.74987827 11.23223578 19 17 C18.34 17.66 17.68 18.32 17 19 C3.58585155 7.85057791 3.58585155 7.85057791 0 0 Z " fill="#4F3E20" transform="translate(127,357)"/>
<path d="M0 0 C1.98859961 1.98859961 2.6197942 3.15651105 3.65625 5.703125 C3.95660156 6.43660156 4.25695312 7.17007812 4.56640625 7.92578125 C4.87449219 8.69277344 5.18257813 9.45976562 5.5 10.25 C5.80808594 11.00152344 6.11617188 11.75304687 6.43359375 12.52734375 C8.10706461 16.64278926 9.65096439 20.76402817 11 25 C7.15153439 21.51449263 5.43126021 17.13087735 3.25 12.5 C2.82589844 11.63246094 2.40179688 10.76492188 1.96484375 9.87109375 C1.56910156 9.03707031 1.17335938 8.20304687 0.765625 7.34375 C0.40243164 6.58255859 0.03923828 5.82136719 -0.33496094 5.03710938 C-1 3 -1 3 0 0 Z " fill="#5B4825" transform="translate(97,305)"/>
<path d="M0 0 C1.4540625 0.0309375 1.4540625 0.0309375 2.9375 0.0625 C2.6075 1.0525 2.2775 2.0425 1.9375 3.0625 C1.9375 2.4025 1.9375 1.7425 1.9375 1.0625 C0.6175 1.3925 -0.7025 1.7225 -2.0625 2.0625 C-2.0625 2.7225 -2.0625 3.3825 -2.0625 4.0625 C-0.10102126 5.45188077 1.89916576 6.7885411 3.9375 8.0625 C3.6075 9.7125 3.2775 11.3625 2.9375 13.0625 C0.2975 13.0625 -2.3425 13.0625 -5.0625 13.0625 C-4.7325 12.0725 -4.4025 11.0825 -4.0625 10.0625 C-2.0825 10.7225 -0.1025 11.3825 1.9375 12.0625 C0.88875002 9.44062506 0.28818687 8.26878639 -2.1875 6.8125 C-2.80625 6.565 -3.425 6.3175 -4.0625 6.0625 C-4.105221 4.39638095 -4.10313832 2.72867115 -4.0625 1.0625 C-3.0625 0.0625 -3.0625 0.0625 0 0 Z " fill="#A38142" transform="translate(215.0625,292.9375)"/>
<path d="M0 0 C5.92863717 1.16651426 11.38798394 2.75519358 17 5 C17 5.66 17 6.32 17 7 C9.375 6.125 9.375 6.125 6 5 C6 4.34 6 3.68 6 3 C3.03 2.505 3.03 2.505 0 2 C0 1.34 0 0.68 0 0 Z " fill="#19140A" transform="translate(298,88)"/>
<path d="M0 0 C-1.08632412 2.25621163 -2.23345965 4.37353544 -3.5625 6.5 C-4.85173947 8.7421556 -5.53347928 10.48078813 -6 13 C-6.66 13 -7.32 13 -8 13 C-7.65355522 4.89319213 -7.65355522 4.89319213 -5.125 1.4375 C-3 0 -3 0 0 0 Z " fill="#D4A856" transform="translate(345,249)"/>
<path d="M0 0 C3.26023324 0.22484367 4.93132641 0.5260489 7.625 2.25 C7.625 2.91 7.625 3.57 7.625 4.25 C5.921875 5.3671875 5.921875 5.3671875 3.625 6.25 C1.265625 5.5703125 1.265625 5.5703125 -1.125 4.375 C-1.92421875 3.98570313 -2.7234375 3.59640625 -3.546875 3.1953125 C-4.45179688 2.72738281 -4.45179688 2.72738281 -5.375 2.25 C-3.375 0.25 -3.375 0.25 0 0 Z " fill="#44361C" transform="translate(318.375,93.75)"/>
<path d="M0 0 C0 3.25416178 -0.35377053 3.89182492 -2.1171875 6.46875 C-2.78041016 7.44908203 -2.78041016 7.44908203 -3.45703125 8.44921875 C-3.92496094 9.12597656 -4.39289063 9.80273438 -4.875 10.5 C-5.33519531 11.17675781 -5.79539062 11.85351562 -6.26953125 12.55078125 C-7.12822022 13.81268069 -7.98973916 15.07266235 -8.85498047 16.33007812 C-9.91628519 17.87790846 -10.95897292 19.43845939 -12 21 C-12.66 20.67 -13.32 20.34 -14 20 C-9.69963374 13.0070032 -5.17767264 6.37373076 0 0 Z " fill="#66512A" transform="translate(124,146)"/>
<path d="M0 0 C4.33398977 -0.37148484 6.38148176 0.71462006 10 3 C10.99 3 11.98 3 13 3 C13.33 3.66 13.66 4.32 14 5 C13.01 5.33 12.02 5.66 11 6 C11 6.99 11 7.98 11 9 C9.16384919 7.69144447 7.33114211 6.37805538 5.5 5.0625 C4.4790625 4.33160156 3.458125 3.60070312 2.40625 2.84765625 C1.6121875 2.23792969 0.818125 1.62820312 0 1 C0 0.67 0 0.34 0 0 Z " fill="#44361C" transform="translate(341,109)"/>
<path d="M0 0 C1.99954746 -0.04254356 4.00041636 -0.04080783 6 0 C6.33 0.33 6.66 0.66 7 1 C9.33944736 0.71269945 11.6739143 0.38063221 14 0 C14 0.66 14 1.32 14 2 C10.37 2.33 6.74 2.66 3 3 C3 3.66 3 4.32 3 5 C-0.3 5 -3.6 5 -7 5 C-3 3 -3 3 0 3 C0 2.01 0 1.02 0 0 Z " fill="#0F0C06" transform="translate(222,83)"/>
<path d="M0 0 C0 0.66 0 1.32 0 2 C-1.93467942 2.83986084 -3.87285129 3.67168027 -5.8125 4.5 C-7.43091797 5.19609375 -7.43091797 5.19609375 -9.08203125 5.90625 C-12 7 -12 7 -15 7 C-15 6.34 -15 5.68 -15 5 C-13.25447527 4.15733289 -11.5033792 3.32619962 -9.75 2.5 C-8.77546875 2.0359375 -7.8009375 1.571875 -6.796875 1.09375 C-4 0 -4 0 0 0 Z " fill="#3F3219" transform="translate(195,94)"/>
<path d="M0 0 C0.66 0.33 1.32 0.66 2 1 C-3.61 4.63 -9.22 8.26 -15 12 C-15.99 11.34 -16.98 10.68 -18 10 C-15.04894616 8.2995208 -12.08809878 6.61688907 -9.125 4.9375 C-8.28324219 4.45216797 -7.44148438 3.96683594 -6.57421875 3.46679688 C-5.76855469 3.01240234 -4.96289062 2.55800781 -4.1328125 2.08984375 C-3.38918457 1.66566162 -2.64555664 1.24147949 -1.87939453 0.80444336 C-1.25919434 0.53897705 -0.63899414 0.27351074 0 0 Z " fill="#AF8B47" transform="translate(371,256)"/>
<path d="M0 0 C0.66 0.33 1.32 0.66 2 1 C-3.61 4.63 -9.22 8.26 -15 12 C-15.99 11.34 -16.98 10.68 -18 10 C-15.04894616 8.2995208 -12.08809878 6.61688907 -9.125 4.9375 C-8.28324219 4.45216797 -7.44148437 3.96683594 -6.57421875 3.46679688 C-5.76855469 3.01240234 -4.96289062 2.55800781 -4.1328125 2.08984375 C-3.38918457 1.66566162 -2.64555664 1.24147949 -1.87939453 0.80444336 C-1.25919434 0.53897705 -0.63899414 0.27351074 0 0 Z " fill="#AF8B47" transform="translate(252,256)"/>
<path d="M0 0 C0 0.99 0 1.98 0 3 C2.97 3.495 2.97 3.495 6 4 C2.98968256 4.93423645 2.13349732 5.04449911 -1 4 C-1 4.66 -1 5.32 -1 6 C-2.32 5.67 -3.64 5.34 -5 5 C-5 4.01 -5 3.02 -5 2 C-6.32 1.67 -7.64 1.34 -9 1 C-5.846632 0.29925156 -3.27275026 0 0 0 Z " fill="#5B4825" transform="translate(298,87)"/>
<path d="M0 0 C4.62409693 0.835628 6.77676317 3.6483501 9.75 7.0625 C10.25660156 7.63033203 10.76320313 8.19816406 11.28515625 8.78320312 C12.53113136 10.1819865 13.76660973 11.59010733 15 13 C14.67 13.66 14.34 14.32 14 15 C11.66265901 12.69152056 9.33081534 10.37756659 7 8.0625 C6.33226562 7.40314453 5.66453125 6.74378906 4.9765625 6.06445312 C4.34492188 5.43603516 3.71328125 4.80761719 3.0625 4.16015625 C2.47597656 3.57886963 1.88945312 2.99758301 1.28515625 2.39868164 C0 1 0 1 0 0 Z " fill="#5A4725" transform="translate(365,127)"/>
<path d="M0 0 C0.33 0 0.66 0 1 0 C3.48063781 10.37357631 3.48063781 10.37357631 2 16 C-0.92990998 11.60513504 -1.30981005 7.1244118 -0.5625 2 C-0.2840625 1.01 -0.2840625 1.01 0 0 Z " fill="#3C2F18" transform="translate(90,277)"/>
<path d="M0 0 C0.66 0 1.32 0 2 0 C2.70133599 1.57725347 3.385583 3.16211333 4.0625 4.75 C4.44535156 5.63171875 4.82820313 6.5134375 5.22265625 7.421875 C6.04600008 10.15256309 5.9773992 11.36901347 5 14 C2.81385576 11.81385576 2.31743465 10.46120051 1.375 7.5625 C1.11460937 6.78003906 0.85421875 5.99757812 0.5859375 5.19140625 C0 3 0 3 0 0 Z " fill="#4C3C1E" transform="translate(405,184)"/>
<path d="M0 0 C2.97 0.99 5.94 1.98 9 3 C9 3.99 9 4.98 9 6 C9.66 6.33 10.32 6.66 11 7 C6.14036821 6.39254603 2.2594482 4.27241033 -2 2 C-1.34 1.34 -0.68 0.68 0 0 Z " fill="#271F10" transform="translate(182,398)"/>
<path d="M0 0 C0.66 0 1.32 0 2 0 C0.5140084 4.59306496 -1.85014682 7.43569245 -5 11 C-5.33 10.01 -5.66 9.02 -6 8 C-4.22557591 5.00183515 -2.46459429 2.46459429 0 0 Z " fill="#171209" transform="translate(345,250)"/>
<path d="M0 0 C0.66 0 1.32 0 2 0 C0.5140084 4.59306496 -1.85014682 7.43569245 -5 11 C-5.33 10.01 -5.66 9.02 -6 8 C-4.22557591 5.00183515 -2.46459429 2.46459429 0 0 Z " fill="#171209" transform="translate(226,250)"/>
<path d="M0 0 C1.32 0.33 2.64 0.66 4 1 C3.67 2.65 3.34 4.3 3 6 C2.01 6.33 1.02 6.66 0 7 C0 6.34 0 5.68 0 5 C-2.64 5.66 -5.28 6.32 -8 7 C-5.94766315 4.7522025 -4.99332739 3.9977758 -2 3 C-1.34 2.01 -0.68 1.02 0 0 Z " fill="#BB944C" transform="translate(262,249)"/>
<path d="M0 0 C3.43927579 1.2419607 6.25207819 2.55740284 9 5 C9 5.66 9 6.32 9 7 C4.48521602 6.46884894 1.65333143 4.63379708 -2 2 C-1.34 1.34 -0.68 0.68 0 0 Z " fill="#352A15" transform="translate(162,384)"/>
<path d="M0 0 C0.66 0 1.32 0 2 0 C3.25664978 2.90600261 4 4.79604584 4 8 C4.66 8 5.32 8 6 8 C6.33 7.34 6.66 6.68 7 6 C6.625 8.9375 6.625 8.9375 6 12 C5.01 12.495 5.01 12.495 4 13 C3.32942113 11.2097939 2.6636531 9.41778511 2 7.625 C1.62875 6.62726563 1.2575 5.62953125 0.875 4.6015625 C0 2 0 2 0 0 Z " fill="#B08B47" transform="translate(266,293)"/>
<path d="M0 0 C0 0.99 0 1.98 0 3 C-0.86625 2.79375 -1.7325 2.5875 -2.625 2.375 C-6.39682814 1.95590798 -8.46580029 2.77071315 -12 4 C-14.1796875 3.5625 -14.1796875 3.5625 -16 3 C-14.08802961 2.29954544 -12.17019565 1.615081 -10.25 0.9375 C-9.18265625 0.55464844 -8.1153125 0.17179687 -7.015625 -0.22265625 C-4.07719958 -0.98010011 -2.77651052 -1.07151741 0 0 Z " fill="#725A2E" transform="translate(312,402)"/>
<path d="M0 0 C1.98 0.495 1.98 0.495 4 1 C3.5359375 1.7734375 3.5359375 1.7734375 3.0625 2.5625 C1.70940713 5.66665423 1.38640576 8.65115007 1 12 C0.34 11.67 -0.32 11.34 -1 11 C-1.0270043 9.54176788 -1.04639787 8.08339325 -1.0625 6.625 C-1.07410156 5.81289063 -1.08570313 5.00078125 -1.09765625 4.1640625 C-1 2 -1 2 0 0 Z " fill="#C49C50" transform="translate(254,269)"/>
<path d="M0 0 C0.66 0 1.32 0 2 0 C0.61811547 3.21043882 -0.92421903 5.04936365 -3.625 7.25 C-4.57246094 8.03117187 -4.57246094 8.03117187 -5.5390625 8.828125 C-6.02117187 9.21484375 -6.50328125 9.6015625 -7 10 C-7 9.34 -7 8.68 -7 8 C-7.66 8 -8.32 8 -9 8 C-8 6 -8 6 -6.1875 5.125 C-3.84447898 4.0608235 -3.84447898 4.0608235 -1.875 1.875 C-1.25625 1.25625 -0.6375 0.6375 0 0 Z " fill="#B28D48" transform="translate(312,248)"/>
<path d="M0 0 C1.1171875 1.734375 1.1171875 1.734375 2 4 C1.3203125 6.140625 1.3203125 6.140625 0.125 8.25 C-0.26429688 8.95640625 -0.65359375 9.6628125 -1.0546875 10.390625 C-1.36664063 10.92171875 -1.67859375 11.4528125 -2 12 C-2.66 12 -3.32 12 -4 12 C-3.33501617 7.61110675 -1.81242323 4.0188515 0 0 Z " fill="#3B2F18" transform="translate(406,314)"/>
<path d="M0 0 C0.66 0 1.32 0 2 0 C1.835 0.639375 1.67 1.27875 1.5 1.9375 C0.96073333 3.80826821 0.96073333 3.80826821 1 5 C1.99 5.33 2.98 5.66 4 6 C3.67 6.66 3.34 7.32 3 8 C1.35 7.67 -0.3 7.34 -2 7 C-2 6.34 -2 5.68 -2 5 C-3.65 5.33 -5.3 5.66 -7 6 C-4.64046906 3.64046906 -3.22104383 3.50858587 0 3 C0 2.01 0 1.02 0 0 Z " fill="#70582D" transform="translate(194,87)"/>
<path d="M0 0 C2.33061852 3.49592778 2.70295038 5.84130536 3 10 C2.01 11.485 2.01 11.485 1 13 C0.63779734 11.20994059 0.28547531 9.41787943 -0.0625 7.625 C-0.25972656 6.62726563 -0.45695312 5.62953125 -0.66015625 4.6015625 C-1 2 -1 2 0 0 Z " fill="#4A3B1E" transform="translate(411,197)"/>
<path d="M0 0 C-0.33 0.99 -0.66 1.98 -1 3 C-4.63 3.33 -8.26 3.66 -12 4 C-8.54145481 0.54145481 -4.78095787 0 0 0 Z " fill="#AB8845" transform="translate(288,259)"/>
<path d="M0 0 C1.43088528 2.86177057 0.59991697 4.93375773 0 8 C-0.66 6.68 -1.32 5.36 -2 4 C-2.928125 4.99 -2.928125 4.99 -3.875 6 C-6 8 -6 8 -8 8 C-6.49776416 3.79373966 -3.71449966 2.26099979 0 0 Z " fill="#AA8745" transform="translate(337,254)"/>
<path d="M0 0 C2.3125 2.0625 2.3125 2.0625 4 4 C-0.45351799 4 -3.32740617 2.44839588 -7 0 C-4.23382717 -1.38308641 -2.92591209 -0.90563946 0 0 Z " fill="#221B0E" transform="translate(348,108)"/>
<path d="M0 0 C2 3 2 3 1.75 6.0625 C1 9 1 9 -1 11 C-2.26264601 6.70700357 -1.62950412 4.12168689 0 0 Z " fill="#44361C" transform="translate(412,297)"/>
<path d="M0 0 C0.99 0.33 1.98 0.66 3 1 C1.02 5.455 1.02 5.455 -1 10 C-1.66 8.68 -2.32 7.36 -3 6 C-1.625 2.75 -1.625 2.75 0 0 Z " fill="#4A3B1E" transform="translate(104,177)"/>
<path d="M0 0 C2.475 0.495 2.475 0.495 5 1 C5.33 2.65 5.66 4.3 6 6 C5.01 6 4.02 6 3 6 C3 4.68 3 3.36 3 2 C2.01 2 1.02 2 0 2 C0 1.34 0 0.68 0 0 Z " fill="#B28D49" transform="translate(286,246)"/>
<path d="M0 0 C0.66 0.33 1.32 0.66 2 1 C1.125 6.75 1.125 6.75 0 9 C-0.66 9 -1.32 9 -2 9 C-1.125 2.25 -1.125 2.25 0 0 Z " fill="#3D3019" transform="translate(100,186)"/>
<path d="M0 0 C0.99 0 1.98 0 3 0 C2.25 4.75 2.25 4.75 0 7 C-0.66 6.67 -1.32 6.34 -2 6 C-1.34 4.02 -0.68 2.04 0 0 Z " fill="#C29A4F" transform="translate(216,222)"/>
<path d="M0 0 C0.33 1.32 0.66 2.64 1 4 C-4.75 3.25 -4.75 3.25 -7 1 C-4.53721199 -0.231394 -2.7204945 -0.07159196 0 0 Z " fill="#312714" transform="translate(320,94)"/>
<path d="M0 0 C0.33 0.66 0.66 1.32 1 2 C2.32 2 3.64 2 5 2 C5 2.66 5 3.32 5 4 C2.36 4.66 -0.28 5.32 -3 6 C-2.01 4.02 -1.02 2.04 0 0 Z " fill="#19140A" transform="translate(196,87)"/>
<path d="M0 0 C0.66 0.33 1.32 0.66 2 1 C1.25 5.75 1.25 5.75 -1 8 C-1.93065133 5.39417629 -2.14917407 4.35801776 -1.0625 1.75 C-0.711875 1.1725 -0.36125 0.595 0 0 Z " fill="#46371C" transform="translate(409,307)"/>
<path d="M0 0 C-1.8125 1.5625 -1.8125 1.5625 -4 3 C-4.99 2.67 -5.98 2.34 -7 2 C-7 1.34 -7 0.68 -7 0 C-4.3333581 -1.33332095 -2.83319697 -0.67102033 0 0 Z " fill="#40321A" transform="translate(345,106)"/>
<path d="M0 0 C0 0.66 0 1.32 0 2 C-2.31 2.66 -4.62 3.32 -7 4 C-7.33 3.34 -7.66 2.68 -8 2 C-4.91190305 0.23537317 -3.76687864 0 0 0 Z " fill="#534222" transform="translate(195,94)"/>
<path d="M0 0 C2.5654594 2.5654594 2.54046087 4.47686668 3 8 C2.34 8 1.68 8 1 8 C0.34 5.69 -0.32 3.38 -1 1 C-0.67 0.67 -0.34 0.34 0 0 Z " fill="#503F20" transform="translate(97,305)"/>
</svg>
